<svg xmlns="http://www.w3.org/2000/svg" version="1.1" xmlns:xlink="http://www.w3.org/1999/xlink" width="512" height="512" x="0" y="0" viewBox="0 0 512 512" style="enable-background:new 0 0 512 512" xml:space="preserve" class=""><g><path fill="#88ce65" d="M469.001 388.128c20.361-35.726 32.001-77.067 32.001-121.13 0-135.311-109.691-245.002-245.002-245.002S10.998 131.687 10.998 266.998c0 44.063 11.64 85.404 32.001 121.13z" opacity="1" data-original="#88ce65" class=""></path><path fill="#73c3f9" d="M230.485 510.682A247.775 247.775 0 0 0 256 512c8.721 0 17.333-.464 25.819-1.353V377h-51.333v133.682z" opacity="1" data-original="#73c3f9"></path><path fill="#49b1f7" d="M281.819 377h-51.334v30.872A80.99 80.99 0 0 0 256.002 412c8.903 0 17.605-1.47 25.816-4.23V377z" opacity="1" data-original="#49b1f7"></path><path fill="#ffaa7b" d="M312.817 354.341 337 316.993a218.725 218.725 0 0 0-15.333-4.136c-10.152-10.152-12.726-29.399-13.189-42.865-5.298 6.171-10.858 11.333-16.171 15.458-10.352 8.039-23.126 12.405-36.282 12.405s-25.93-4.366-36.281-12.405c-5.313-4.125-10.874-9.288-16.172-15.458-.463 13.466-3.037 32.713-13.189 42.865a219.09 219.09 0 0 0-15.365 4.145l24.168 37.333a67.682 67.682 0 0 0 56.817 30.902 67.679 67.679 0 0 0 56.814-30.896z" opacity="1" data-original="#ffaa7b"></path><path fill="#fc9460" d="M219.745 285.45c-5.313-4.126-10.873-9.288-16.172-15.458-.463 13.466-3.037 32.713-13.189 42.865a218.547 218.547 0 0 0-15.365 4.146l16.75 25.875c11.791 5.314 24.421 8.035 35.172 3.623 23.214-9.527 27.993-36.748 28.966-48.647-13.113-.027-25.842-4.389-36.162-12.404z" opacity="1" data-original="#fc9460"></path><path fill="#6c5475" d="M210.237 330.676a34.666 34.666 0 0 0-3.402 1.095c-8.161 3.107-19.097 10.952-25.261 30.674-5.958.101-33.175 1.54-50.946 19.036-10.112 9.957-15.24 23.323-15.24 39.727v46.426c34.404 24.153 75.299 39.687 119.555 43.455V343.242z" opacity="1" data-original="#6c5475"></path><path fill="#56415e" d="M180.274 315.437c-93.679 30.547-120.397 36.009-131.678 59.019-2.004 4.087-3.865 8.684-5.598 13.672 18.288 32.09 43.62 59.641 73.889 80.556v-47.477c0-58.292 65.799-57.268 65.799-57.268 6.855-23.052 20.08-30.196 29.611-32.215z" opacity="1" data-original="#56415e"></path><path fill="#6c5475" d="M469.001 388.128c-1.733-4.988-3.594-9.585-5.598-13.672-11.28-23.01-37.999-28.472-131.678-59.019l-32.24 16.397v176.317c72.664-13.016 134.21-58.072 169.516-120.023z" opacity="1" data-original="#6c5475"></path><path fill="#56415e" d="M351.434 158.082c6.504-26.523 11.815-66.265-2.247-99.333C321.994-5.195 247.987-1.253 228.375.999c-2.059.236-3.092 2.585-1.921 4.294 11.756 17.162-34.301 1.613-59.334 54.123-15.866 33.279-11.879 72.461-6.079 98.667h190.393z" opacity="1" data-original="#56415e"></path><path fill="#45304c" d="M254.926 70.454S247.554 53.5 266.223 39.5C284.867 25.518 257.074.397 257.002.332c-12.505-.792-22.894.008-28.628.667-2.059.236-3.092 2.585-1.921 4.294 11.756 17.162-34.301 1.613-59.334 54.123-15.866 33.279-11.879 72.461-6.079 98.667h43.521l13.824-5.492z" opacity="1" data-original="#45304c"></path><path fill="#ffaa7b" d="M355.257 154.721c-4.103-3.76-13.276-1.854-16.81.448a49.69 49.69 0 0 1 .15 14.623l-4.17 30.372c0 2.448-.077 4.85-.219 7.21 10.169 3.067 16.22-6.062 17.071-12.327a46.57 46.57 0 0 1 1.796-7.949c2.704-8.446 12.462-22.956 2.182-32.377z" opacity="1" data-original="#ffaa7b"></path><path fill="#fc9460" d="M156.744 154.721c4.103-3.76 13.276-1.854 16.81.448a49.656 49.656 0 0 0-.149 14.623l4.17 30.372c0 2.448.077 4.85.219 7.21-10.169 3.067-16.22-6.062-17.071-12.327a46.57 46.57 0 0 0-1.796-7.949c-2.705-8.446-12.463-22.956-2.183-32.377z" opacity="1" data-original="#fc9460"></path><path fill="#ffc7ab" d="M333.325 138.518c-4.621-7.249-3.09-13.17-3.015-20.103 0 0 3.898-31.917-35.411-43.25-11.38-3.281-27.439-5.243-43.894-4.612-11.451 8.073-18.991 19.919-18.991 36.705 0 7.716 1.663 13.744-3.071 21.566-5.106 8.435-8.076 20.602-6.389 33.542l4.249 32.589c0 46.851 23.748 78.697 43.949 95.217a59.417 59.417 0 0 0 9.14 6.131 58.864 58.864 0 0 0 12.391-7.38c19.831-15.4 43.144-45.085 43.144-88.759l4.17-30.372c1.643-11.966-1.209-23.331-6.272-31.274z" opacity="1" data-original="#ffc7ab" class=""></path><path fill="#ffaa7b" d="M270.955 288.264c-19.831-16.218-43.145-47.48-43.145-93.475l-4.171-31.993c-1.656-12.702 1.26-24.647 6.272-32.928 4.648-7.679 3.015-13.597 3.015-21.172 0-18.073 8.888-30.329 21.999-38.243-34.937.483-73.235 12.325-73.235 47.962 0 7.192 1.632 12.812-3.015 20.104-5.012 7.863-7.928 19.205-6.272 31.267l4.171 30.379c0 43.674 23.313 73.359 43.145 88.759 10.351 8.038 23.125 12.404 36.281 12.404 9.051 0 17.92-2.066 25.944-5.973a58.413 58.413 0 0 1-10.989-7.091z" opacity="1" data-original="#ffaa7b"></path><path fill="#876d93" d="M277.057 511.09a244.771 244.771 0 0 0 27.179-3.849V331.326l-27.179 11.916z" opacity="1" data-original="#876d93" class=""></path><path fill="#a98bbc" d="M343.623 312.846a115.819 115.819 0 0 0-29.405-23.135 1.943 1.943 0 0 0-2.844 1.317c-1.615 7.909-8.319 31.868-32.244 47.708-4.943 3.273-5.854 10.162-1.955 14.628l24.041 27.536c5.784 6.662 16.434 5.463 20.608-2.309 7.058-13.14 16.891-33.139 24.169-54.642 1.303-3.849.377-8.107-2.37-11.103z" opacity="1" data-original="#a98bbc" class=""></path><path fill="#876d93" d="M232.885 338.737a74.024 74.024 0 0 1-11.253-9.15c-2.907-.234-8.478-.221-14.797 2.184-8.094 3.081-18.913 10.829-25.104 30.192a420.503 420.503 0 0 0 8.46 16.629c4.175 7.772 14.824 8.971 20.608 2.309l24.041-27.535c3.899-4.467 2.988-11.357-1.955-14.629z" opacity="1" data-original="#876d93" class=""></path><path fill="#6c5475" d="M223.451 331.326c-16.336-15.107-21.431-33.547-22.809-40.297a1.944 1.944 0 0 0-2.845-1.318 115.792 115.792 0 0 0-29.404 23.135c-2.747 2.996-3.673 7.254-2.37 11.104 4.934 14.58 11.042 28.461 16.665 39.988 11.465-38.556 40.76-32.613 40.763-32.612z" opacity="1" data-original="#6c5475"></path><path fill="#b4d667" d="M414.102 79.852c-11.389 14.637-23.214 36.046-23.214 61.858 0 49.791-62 131.725 0 147.758 50.97 13.181 79.113 19.054 98.564 52.058 7.499-23.5 11.551-48.539 11.551-74.527-.001-75.051-33.757-142.205-86.901-187.147zM97.898 79.852c11.389 14.637 23.214 36.046 23.214 61.858 0 49.791 62 131.725 0 147.758-50.97 13.181-79.114 19.054-98.563 52.058-7.499-23.5-11.551-48.539-11.551-74.527 0-75.051 33.756-142.205 86.9-187.147z" opacity="1" data-original="#b4d667" class=""></path><path fill="#56415e" d="M437.608 431.418c-4.848-20.04-17.209-31.614-27.207-37.935-6.251-3.952-14.401.496-14.401 7.892v66.688a246.34 246.34 0 0 0 41.608-36.645z" opacity="1" data-original="#56415e"></path></g></svg>