<svg xmlns="http://www.w3.org/2000/svg" version="1.1" xmlns:xlink="http://www.w3.org/1999/xlink" width="512" height="512" x="0" y="0" viewBox="0 0 682.667 682.667" style="enable-background:new 0 0 512 512" xml:space="preserve" class=""><g><defs><clipPath id="a" clipPathUnits="userSpaceOnUse"><path d="M0 512h512V0H0Z" fill="#000000" opacity="1" data-original="#000000"></path></clipPath></defs><g clip-path="url(#a)" transform="matrix(1.33333 0 0 -1.33333 0 682.667)"><path d="M0 0c0-86.474-70.102-156.575-156.575-156.575-86.474 0-156.575 70.101-156.575 156.575 0 86.474 70.101 156.575 156.575 156.575C-70.102 156.575 0 86.474 0 0" style="fill-opacity:1;fill-rule:nonzero;stroke:none" transform="translate(412.575 256)" fill="#62d8f9" data-original="#62d8f9" class=""></path><path d="M0 0c53.298-30.572 89.202-88.035 89.202-153.886 0-65.85-35.904-123.313-89.202-153.885 72.623 13.595 127.588 77.317 127.588 153.885C127.588-77.317 72.623-13.596 0 0" style="fill-opacity:1;fill-rule:nonzero;stroke:none" transform="translate(284.987 409.886)" fill="#00bef7" data-original="#00bef7" class=""></path><path d="M0 0c0-13.947-11.307-25.254-25.254-25.254-13.947 0-25.254 11.307-25.254 25.254 0 13.947 11.307 25.254 25.254 25.254C-11.307 25.254 0 13.947 0 0" style="fill-opacity:1;fill-rule:nonzero;stroke:none" transform="translate(281.254 479.246)" fill="#fbe77b" data-original="#fbe77b"></path><path d="M0 0a25.157 25.157 0 0 0 2.395-10.737c0-13.948-11.307-25.254-25.254-25.254-3.841 0-7.478.86-10.738 2.394 4.036-8.577 12.753-14.516 22.86-14.516 13.947 0 25.254 11.306 25.254 25.254C14.517-12.753 8.577-4.036 0 0" style="fill-opacity:1;fill-rule:nonzero;stroke:none" transform="translate(266.737 502.106)" fill="#fcdd2e" data-original="#fcdd2e"></path><path d="M0 0c0-13.947-11.307-25.254-25.254-25.254-13.948 0-25.254 11.307-25.254 25.254 0 13.947 11.306 25.254 25.254 25.254C-11.307 25.254 0 13.947 0 0" style="fill-opacity:1;fill-rule:nonzero;stroke:none" transform="translate(58.008 479.246)" fill="#b9ea6a" data-original="#b9ea6a"></path><path d="M0 0a25.143 25.143 0 0 0 2.395-10.737c0-13.948-11.307-25.254-25.254-25.254-3.841 0-7.478.86-10.738 2.394 4.036-8.577 12.753-14.516 22.86-14.516 13.947 0 25.254 11.306 25.254 25.254C14.517-12.753 8.577-4.036 0 0" style="fill-opacity:1;fill-rule:nonzero;stroke:none" transform="translate(43.491 502.106)" fill="#a1e42c" data-original="#a1e42c"></path><path d="M0 0c0-13.947-11.307-25.254-25.254-25.254-13.947 0-25.254 11.307-25.254 25.254 0 13.947 11.307 25.254 25.254 25.254C-11.307 25.254 0 13.947 0 0" style="fill-opacity:1;fill-rule:nonzero;stroke:none" transform="translate(504.5 256)" fill="#fbe77b" data-original="#fbe77b"></path><path d="M0 0a25.157 25.157 0 0 0 2.395-10.737c0-13.948-11.307-25.254-25.254-25.254-3.841 0-7.479.861-10.738 2.394 4.036-8.577 12.752-14.516 22.86-14.516 13.947 0 25.254 11.306 25.254 25.254C14.517-12.752 8.577-4.036 0 0" style="fill-opacity:1;fill-rule:nonzero;stroke:none" transform="translate(489.983 278.86)" fill="#fcdd2e" data-original="#fcdd2e"></path><path d="M0 0c0-13.947-11.307-25.254-25.254-25.254-13.947 0-25.254 11.307-25.254 25.254 0 13.947 11.307 25.254 25.254 25.254C-11.307 25.254 0 13.947 0 0" style="fill-opacity:1;fill-rule:nonzero;stroke:none" transform="translate(281.254 32.754)" fill="#fbe77b" data-original="#fbe77b"></path><path d="M0 0a25.154 25.154 0 0 0 2.395-10.737c0-13.948-11.307-25.254-25.254-25.254-3.841 0-7.478.861-10.738 2.394 4.036-8.577 12.753-14.516 22.86-14.516 13.947 0 25.254 11.306 25.254 25.254C14.517-12.752 8.577-4.036 0 0" style="fill-opacity:1;fill-rule:nonzero;stroke:none" transform="translate(266.737 55.613)" fill="#fcdd2e" data-original="#fcdd2e"></path><path d="M0 0c0-13.947-11.307-25.254-25.254-25.254-13.948 0-25.254 11.307-25.254 25.254 0 13.947 11.306 25.254 25.254 25.254C-11.307 25.254 0 13.947 0 0" style="fill-opacity:1;fill-rule:nonzero;stroke:none" transform="translate(58.008 256)" fill="#fbe77b" data-original="#fbe77b"></path><path d="M0 0a25.143 25.143 0 0 0 2.395-10.737c0-13.948-11.307-25.254-25.254-25.254-3.841 0-7.478.861-10.738 2.394 4.036-8.577 12.753-14.516 22.86-14.516 13.947 0 25.254 11.306 25.254 25.254C14.517-12.752 8.577-4.036 0 0" style="fill-opacity:1;fill-rule:nonzero;stroke:none" transform="translate(43.491 278.86)" fill="#fcdd2e" data-original="#fcdd2e"></path><path d="M0 0c13.947 0 25.254 11.307 25.254 25.254 0 13.947-11.307 25.254-25.254 25.254-13.947 0-25.254-11.307-25.254-25.254C-25.254 11.307-13.947 0 0 0" style="fill-opacity:1;fill-rule:nonzero;stroke:none" transform="translate(479.246 453.992)" fill="#b9ea6a" data-original="#b9ea6a"></path><path d="M0 0a25.14 25.14 0 0 1 10.737-2.395c13.948 0 25.254 11.307 25.254 25.254 0 3.84-.861 7.479-2.394 10.738 8.577-4.036 14.516-12.753 14.516-22.86 0-13.947-11.306-25.254-25.254-25.254C12.752-14.517 4.036-8.577 0 0" style="fill-opacity:1;fill-rule:nonzero;stroke:none" transform="translate(456.387 468.509)" fill="#a1e42c" data-original="#a1e42c"></path><path d="M0 0c13.948 0 25.254 11.307 25.254 25.254 0 13.947-11.306 25.254-25.254 25.254-13.947 0-25.254-11.307-25.254-25.254C-25.254 11.307-13.947 0 0 0" style="fill-opacity:1;fill-rule:nonzero;stroke:none" transform="translate(32.754 7.5)" fill="#b9ea6a" data-original="#b9ea6a"></path><path d="M0 0a25.159 25.159 0 0 1 10.738-2.395c13.947 0 25.254 11.307 25.254 25.254 0 3.841-.862 7.479-2.395 10.738 8.577-4.036 14.517-12.752 14.517-22.86 0-13.947-11.307-25.254-25.255-25.254C12.752-14.517 4.036-8.577 0 0" style="fill-opacity:1;fill-rule:nonzero;stroke:none" transform="translate(9.895 22.017)" fill="#a1e42c" data-original="#a1e42c"></path><path d="M0 0c0-13.947-11.307-25.254-25.254-25.254-13.947 0-25.254 11.307-25.254 25.254 0 13.947 11.307 25.254 25.254 25.254C-11.307 25.254 0 13.947 0 0" style="fill-opacity:1;fill-rule:nonzero;stroke:none" transform="translate(504.5 32.754)" fill="#b9ea6a" data-original="#b9ea6a"></path><path d="M0 0a25.154 25.154 0 0 0 2.395-10.737c0-13.948-11.307-25.254-25.254-25.254-3.841 0-7.479.861-10.738 2.394 4.036-8.577 12.752-14.516 22.86-14.516 13.947 0 25.254 11.306 25.254 25.254C14.517-12.752 8.577-4.036 0 0" style="fill-opacity:1;fill-rule:nonzero;stroke:none" transform="translate(489.983 55.613)" fill="#a1e42c" data-original="#a1e42c"></path><path d="M0 0c11.59-103.16 93.47-185.04 196.63-196.63" style="stroke-width:15;stroke-linecap:round;stroke-linejoin:round;stroke-miterlimit:10;stroke-dasharray:none;stroke-opacity:1" transform="translate(34.16 230.79)" fill="none" stroke="#000000" stroke-width="15" stroke-linecap="round" stroke-linejoin="round" stroke-miterlimit="10" stroke-dasharray="none" stroke-opacity="" data-original="#000000" class=""></path><path d="M0 0c103.16 11.59 185.04 93.47 196.63 196.63" style="stroke-width:15;stroke-linecap:round;stroke-linejoin:round;stroke-miterlimit:10;stroke-dasharray:none;stroke-opacity:1" transform="translate(281.21 34.16)" fill="none" stroke="#000000" stroke-width="15" stroke-linecap="round" stroke-linejoin="round" stroke-miterlimit="10" stroke-dasharray="none" stroke-opacity="" data-original="#000000" class=""></path><path d="M0 0c11.59 103.16 93.47 185.04 196.63 196.63" style="stroke-width:15;stroke-linecap:round;stroke-linejoin:round;stroke-miterlimit:10;stroke-dasharray:none;stroke-opacity:1" transform="translate(34.16 281.21)" fill="none" stroke="#000000" stroke-width="15" stroke-linecap="round" stroke-linejoin="round" stroke-miterlimit="10" stroke-dasharray="none" stroke-opacity="" data-original="#000000" class=""></path><path d="M0 0c103.16-11.59 185.04-93.47 196.63-196.63" style="stroke-width:15;stroke-linecap:round;stroke-linejoin:round;stroke-miterlimit:10;stroke-dasharray:none;stroke-opacity:1" transform="translate(281.21 477.84)" fill="none" stroke="#000000" stroke-width="15" stroke-linecap="round" stroke-linejoin="round" stroke-miterlimit="10" stroke-dasharray="none" stroke-opacity="" data-original="#000000" class=""></path><path d="M0 0c32.447-23.294 74.514-37.361 120.487-37.361 45.972 0 88.039 14.067 120.487 37.361" style="stroke-width:15;stroke-linecap:round;stroke-linejoin:round;stroke-miterlimit:10;stroke-dasharray:none;stroke-opacity:1" transform="translate(135.513 355.991)" fill="none" stroke="#000000" stroke-width="15" stroke-linecap="round" stroke-linejoin="round" stroke-miterlimit="10" stroke-dasharray="none" stroke-opacity="" data-original="#000000" class=""></path><path d="M0 0c-32.447 23.294-74.515 37.361-120.487 37.361-45.973 0-88.04-14.067-120.487-37.361" style="stroke-width:15;stroke-linecap:round;stroke-linejoin:round;stroke-miterlimit:10;stroke-dasharray:none;stroke-opacity:1" transform="translate(376.487 156.009)" fill="none" stroke="#000000" stroke-width="15" stroke-linecap="round" stroke-linejoin="round" stroke-miterlimit="10" stroke-dasharray="none" stroke-opacity="" data-original="#000000" class=""></path><path d="M0 0c0-86.474-36.182-156.575-80.813-156.575-44.632 0-80.813 70.101-80.813 156.575 0 86.474 36.181 156.575 80.813 156.575C-36.182 156.575 0 86.474 0 0Z" style="stroke-width:15;stroke-linecap:round;stroke-linejoin:round;stroke-miterlimit:10;stroke-dasharray:none;stroke-opacity:1" transform="translate(336.813 256)" fill="none" stroke="#000000" stroke-width="15" stroke-linecap="round" stroke-linejoin="round" stroke-miterlimit="10" stroke-dasharray="none" stroke-opacity="" data-original="#000000" class=""></path><path d="M0 0c27.679 44.188 76.802 73.573 132.789 73.573 86.474 0 156.575-70.101 156.575-156.575 0-9.21-.795-18.234-2.32-27.009" style="stroke-width:15;stroke-linecap:round;stroke-linejoin:round;stroke-miterlimit:10;stroke-dasharray:none;stroke-opacity:1" transform="translate(123.21 339.002)" fill="none" stroke="#000000" stroke-width="15" stroke-linecap="round" stroke-linejoin="round" stroke-miterlimit="10" stroke-dasharray="none" stroke-opacity="" data-original="#000000" class=""></path><path d="M0 0c-23.755-56.229-79.417-95.688-144.295-95.688-86.474 0-156.575 70.102-156.575 156.576 0 18.005 3.039 35.3 8.632 51.401" style="stroke-width:15;stroke-linecap:round;stroke-linejoin:round;stroke-miterlimit:10;stroke-dasharray:none;stroke-opacity:1" transform="translate(400.295 195.112)" fill="none" stroke="#000000" stroke-width="15" stroke-linecap="round" stroke-linejoin="round" stroke-miterlimit="10" stroke-dasharray="none" stroke-opacity="" data-original="#000000" class=""></path><path d="M0 0h313.15" style="stroke-width:15;stroke-linecap:round;stroke-linejoin:round;stroke-miterlimit:10;stroke-dasharray:none;stroke-opacity:1" transform="translate(99.425 256)" fill="none" stroke="#000000" stroke-width="15" stroke-linecap="round" stroke-linejoin="round" stroke-miterlimit="10" stroke-dasharray="none" stroke-opacity="" data-original="#000000" class=""></path><path d="M0 0v-313.15" style="stroke-width:15;stroke-linecap:round;stroke-linejoin:round;stroke-miterlimit:10;stroke-dasharray:none;stroke-opacity:1" transform="translate(256 412.575)" fill="none" stroke="#000000" stroke-width="15" stroke-linecap="round" stroke-linejoin="round" stroke-miterlimit="10" stroke-dasharray="none" stroke-opacity="" data-original="#000000" class=""></path><path d="M0 0c0-13.947-11.307-25.254-25.254-25.254-13.947 0-25.254 11.307-25.254 25.254 0 13.947 11.307 25.254 25.254 25.254C-11.307 25.254 0 13.947 0 0Z" style="stroke-width:15;stroke-linecap:round;stroke-linejoin:round;stroke-miterlimit:10;stroke-dasharray:none;stroke-opacity:1" transform="translate(281.254 479.246)" fill="none" stroke="#000000" stroke-width="15" stroke-linecap="round" stroke-linejoin="round" stroke-miterlimit="10" stroke-dasharray="none" stroke-opacity="" data-original="#000000" class=""></path><path d="M0 0c0-13.947-11.307-25.254-25.254-25.254-13.948 0-25.254 11.307-25.254 25.254 0 13.947 11.306 25.254 25.254 25.254C-11.307 25.254 0 13.947 0 0Z" style="stroke-width:15;stroke-linecap:round;stroke-linejoin:round;stroke-miterlimit:10;stroke-dasharray:none;stroke-opacity:1" transform="translate(58.008 479.246)" fill="none" stroke="#000000" stroke-width="15" stroke-linecap="round" stroke-linejoin="round" stroke-miterlimit="10" stroke-dasharray="none" stroke-opacity="" data-original="#000000" class=""></path><path d="M0 0c0-13.947-11.307-25.254-25.254-25.254-13.947 0-25.254 11.307-25.254 25.254 0 13.947 11.307 25.254 25.254 25.254C-11.307 25.254 0 13.947 0 0Z" style="stroke-width:15;stroke-linecap:round;stroke-linejoin:round;stroke-miterlimit:10;stroke-dasharray:none;stroke-opacity:1" transform="translate(504.5 256)" fill="none" stroke="#000000" stroke-width="15" stroke-linecap="round" stroke-linejoin="round" stroke-miterlimit="10" stroke-dasharray="none" stroke-opacity="" data-original="#000000" class=""></path><path d="M0 0c0-13.947-11.307-25.254-25.254-25.254-13.947 0-25.254 11.307-25.254 25.254 0 13.947 11.307 25.254 25.254 25.254C-11.307 25.254 0 13.947 0 0Z" style="stroke-width:15;stroke-linecap:round;stroke-linejoin:round;stroke-miterlimit:10;stroke-dasharray:none;stroke-opacity:1" transform="translate(281.254 32.754)" fill="none" stroke="#000000" stroke-width="15" stroke-linecap="round" stroke-linejoin="round" stroke-miterlimit="10" stroke-dasharray="none" stroke-opacity="" data-original="#000000" class=""></path><path d="M0 0c0-13.947-11.307-25.254-25.254-25.254-13.948 0-25.254 11.307-25.254 25.254 0 13.947 11.306 25.254 25.254 25.254C-11.307 25.254 0 13.947 0 0Z" style="stroke-width:15;stroke-linecap:round;stroke-linejoin:round;stroke-miterlimit:10;stroke-dasharray:none;stroke-opacity:1" transform="translate(58.008 256)" fill="none" stroke="#000000" stroke-width="15" stroke-linecap="round" stroke-linejoin="round" stroke-miterlimit="10" stroke-dasharray="none" stroke-opacity="" data-original="#000000" class=""></path><path d="m0 0-46.467 46.468" style="stroke-width:15;stroke-linecap:round;stroke-linejoin:round;stroke-miterlimit:10;stroke-dasharray:none;stroke-opacity:1" transform="translate(97.404 414.596)" fill="none" stroke="#000000" stroke-width="15" stroke-linecap="round" stroke-linejoin="round" stroke-miterlimit="10" stroke-dasharray="none" stroke-opacity="" data-original="#000000" class=""></path><path d="M0 0c13.947 0 25.254 11.307 25.254 25.254 0 13.947-11.307 25.254-25.254 25.254-13.947 0-25.254-11.307-25.254-25.254C-25.254 11.307-13.947 0 0 0Z" style="stroke-width:15;stroke-linecap:round;stroke-linejoin:round;stroke-miterlimit:10;stroke-dasharray:none;stroke-opacity:1" transform="translate(479.246 453.992)" fill="none" stroke="#000000" stroke-width="15" stroke-linecap="round" stroke-linejoin="round" stroke-miterlimit="10" stroke-dasharray="none" stroke-opacity="" data-original="#000000" class=""></path><path d="m0 0 46.468 46.468" style="stroke-width:15;stroke-linecap:round;stroke-linejoin:round;stroke-miterlimit:10;stroke-dasharray:none;stroke-opacity:1" transform="translate(414.596 414.596)" fill="none" stroke="#000000" stroke-width="15" stroke-linecap="round" stroke-linejoin="round" stroke-miterlimit="10" stroke-dasharray="none" stroke-opacity="" data-original="#000000" class=""></path><path d="M0 0c13.948 0 25.254 11.307 25.254 25.254 0 13.947-11.306 25.254-25.254 25.254-13.947 0-25.254-11.307-25.254-25.254C-25.254 11.307-13.947 0 0 0Z" style="stroke-width:15;stroke-linecap:round;stroke-linejoin:round;stroke-miterlimit:10;stroke-dasharray:none;stroke-opacity:1" transform="translate(32.754 7.5)" fill="none" stroke="#000000" stroke-width="15" stroke-linecap="round" stroke-linejoin="round" stroke-miterlimit="10" stroke-dasharray="none" stroke-opacity="" data-original="#000000" class=""></path><path d="m0 0-46.467-46.468" style="stroke-width:15;stroke-linecap:round;stroke-linejoin:round;stroke-miterlimit:10;stroke-dasharray:none;stroke-opacity:1" transform="translate(97.404 97.404)" fill="none" stroke="#000000" stroke-width="15" stroke-linecap="round" stroke-linejoin="round" stroke-miterlimit="10" stroke-dasharray="none" stroke-opacity="" data-original="#000000" class=""></path><path d="M0 0c0-13.947-11.307-25.254-25.254-25.254-13.947 0-25.254 11.307-25.254 25.254 0 13.947 11.307 25.254 25.254 25.254C-11.307 25.254 0 13.947 0 0Z" style="stroke-width:15;stroke-linecap:round;stroke-linejoin:round;stroke-miterlimit:10;stroke-dasharray:none;stroke-opacity:1" transform="translate(504.5 32.754)" fill="none" stroke="#000000" stroke-width="15" stroke-linecap="round" stroke-linejoin="round" stroke-miterlimit="10" stroke-dasharray="none" stroke-opacity="" data-original="#000000" class=""></path><path d="m0 0 46.468-46.468" style="stroke-width:15;stroke-linecap:round;stroke-linejoin:round;stroke-miterlimit:10;stroke-dasharray:none;stroke-opacity:1" transform="translate(414.596 97.404)" fill="none" stroke="#000000" stroke-width="15" stroke-linecap="round" stroke-linejoin="round" stroke-miterlimit="10" stroke-dasharray="none" stroke-opacity="" data-original="#000000" class=""></path></g></g></svg>