<svg xmlns="http://www.w3.org/2000/svg" version="1.1" xmlns:xlink="http://www.w3.org/1999/xlink" width="512" height="512" x="0" y="0" viewBox="0 0 64 64" style="enable-background:new 0 0 512 512" xml:space="preserve" class=""><g><g data-name="Electric Car"><path fill="#f9bd00" d="M43 16a1 1 0 0 1-1-1v-2a1 1 0 0 1 1-1h3v4z" opacity="1" data-original="#f9bd00" data-darkreader-inline-fill="" style="--darkreader-inline-fill: #ffc91e;"></path><path fill="#8ac9fe" d="M55.65 57a5.785 5.785 0 0 0 .346-1.788 6.053 6.053 0 0 0-5.085-6.145 6.282 6.282 0 0 0-.92-.068 5.903 5.903 0 0 0-3.909 1.458A5.998 5.998 0 0 0 44 55a5.818 5.818 0 0 0 .35 1.999L23.65 57a5.785 5.785 0 0 0 .346-1.788 6.053 6.053 0 0 0-5.085-6.145 6.279 6.279 0 0 0-.92-.068 5.902 5.902 0 0 0-3.907 1.458A5.996 5.996 0 0 0 12 55a5.818 5.818 0 0 0 .35 1.999L5 57v-8a8.022 8.022 0 0 1 7.44-7.98l.57-.04 1.07-2.141a17.797 17.797 0 0 1 31.838 0L47 41h6a10.011 10.011 0 0 1 10 10v6z" opacity="1" data-original="#8ac9fe" data-darkreader-inline-fill="" style="--darkreader-inline-fill: #014279;" class=""></path><circle cx="18" cy="55" r="6" fill="#9b8e99" opacity="1" data-original="#9b8e99" data-darkreader-inline-fill="" style="--darkreader-inline-fill: #545b5f;"></circle><circle cx="18" cy="55" r="3" fill="#897987" opacity="1" data-original="#897987" data-darkreader-inline-fill="" style="--darkreader-inline-fill: #989082;"></circle><circle cx="50" cy="55" r="6" fill="#9b8e99" opacity="1" data-original="#9b8e99" data-darkreader-inline-fill="" style="--darkreader-inline-fill: #545b5f;"></circle><circle cx="50" cy="55" r="3" fill="#897987" opacity="1" data-original="#897987" data-darkreader-inline-fill="" style="--darkreader-inline-fill: #989082;"></circle><path fill="#fedf30" d="M49 19a3.003 3.003 0 0 1-3-3v-4a3.003 3.003 0 0 1 3-3h7v10z" opacity="1" data-original="#fedf30" data-darkreader-inline-fill="" style="--darkreader-inline-fill: #837001;"></path><circle cx="24" cy="14" r="11" fill="#fedf30" opacity="1" data-original="#fedf30" data-darkreader-inline-fill="" style="--darkreader-inline-fill: #837001;"></circle><path fill="#f9bd00" d="M22 15h-5l9-8v6h5l-8.998 7.998z" opacity="1" data-original="#f9bd00" data-darkreader-inline-fill="" style="--darkreader-inline-fill: #c79700;"></path><path fill="#322b33" d="M57 55.25v-.23q0 .3-.03.6c.01-.12.03-.24.03-.37z" opacity="1" data-original="#322b33" data-darkreader-inline-fill="" style="--darkreader-inline-fill: #cac6bf;" class=""></path><path fill="#49b4fc" d="M43.62 41H16.38A14.815 14.815 0 0 1 30 32a14.81 14.81 0 0 1 13.62 9z" opacity="1" data-original="#49b4fc" data-darkreader-inline-fill="" style="--darkreader-inline-fill: #03609f;"></path><path fill="#23a0e5" d="M43.62 41H30v-9a14.81 14.81 0 0 1 13.62 9z" opacity="1" data-original="#23a0e5" data-darkreader-inline-fill="" style="--darkreader-inline-fill: #157ab2;" class=""></path><g fill="#322b33" data-darkreader-inline-fill="" style="--darkreader-inline-fill: #232628;"><path d="M38.309 33.36a15.805 15.805 0 0 0-22.848 7.245A1 1 0 0 0 16.38 42h27.24a1 1 0 0 0 .92-1.393 15.753 15.753 0 0 0-6.231-7.246zM29 33.039V40H17.991A13.814 13.814 0 0 1 29 33.038zM31 40v-6.963A13.806 13.806 0 0 1 42.012 40z" fill="#322b33" opacity="1" data-original="#322b33" data-darkreader-inline-fill="" style="--darkreader-inline-fill: #232628;" class=""></path><path d="M53 40h-5.38l-.81-1.61a18.794 18.794 0 0 0-33.62 0l-.82 1.63A9.018 9.018 0 0 0 4 49v1H2V21a6.007 6.007 0 0 1 6-6h4.05a11.99 11.99 0 0 0 23.9 0H41a2.002 2.002 0 0 0 2 2h2.142A3.996 3.996 0 0 0 49 20h6v1a1 1 0 0 0 2 0v-3h4a1 1 0 0 0 0-2h-4v-4h4a1 1 0 0 0 0-2h-4V7a1 1 0 0 0-2 0v1h-6a3.996 3.996 0 0 0-3.858 3H43a2.002 2.002 0 0 0-2 2h-5.05a11.99 11.99 0 0 0-23.9 0H8a8.01 8.01 0 0 0-8 8v30a1 1 0 0 0 1 1h3v5a1.003 1.003 0 0 0 1 1h6.685a6.985 6.985 0 0 0 12.63 0h19.37a6.985 6.985 0 0 0 12.63 0H63a1.003 1.003 0 0 0 1-1v-6a11.007 11.007 0 0 0-11-11zm-4-30h6v8h-6a2.002 2.002 0 0 1-2-2v-4a2.002 2.002 0 0 1 2-2zm-6 3h2v2h-2zM24 4a10 10 0 1 1-10 10A10.011 10.011 0 0 1 24 4zm-6 56a5 5 0 1 1 5-5 5.006 5.006 0 0 1-5 5zm32 0a5 5 0 1 1 5-5 5.006 5.006 0 0 1-5 5zm12-4h-5.08a7 7 0 1 0-13.84 0H24.92a7 7 0 1 0-13.84 0H6v-7a7.008 7.008 0 0 1 7-7 .988.988 0 0 0 .89-.55l1.09-2.16a16.787 16.787 0 0 1 30.04 0l1.09 2.16A.988.988 0 0 0 47 42h6a9.014 9.014 0 0 1 9 9z" fill="#322b33" opacity="1" data-original="#322b33" data-darkreader-inline-fill="" style="--darkreader-inline-fill: #232628;" class=""></path><path d="M18 51a4 4 0 1 0 4 4 4.004 4.004 0 0 0-4-4zm0 6a2 2 0 1 1 2-2 2.002 2.002 0 0 1-2 2zM50 51a4 4 0 1 0 4 4 4.004 4.004 0 0 0-4-4zm0 6a2 2 0 1 1 2-2 2.002 2.002 0 0 1-2 2zM36 44h-3a1 1 0 0 0 0 2h3a1 1 0 0 0 0-2zM21 16v5a1 1 0 0 0 1.664.748l9-8A1 1 0 0 0 31 12h-4V7a1 1 0 0 0-1.664-.748l-9 8A1 1 0 0 0 17 16zm4-6.773V13a1 1 0 0 0 1 1h2.37L23 18.773V15a1 1 0 0 0-1-1h-2.37z" fill="#322b33" opacity="1" data-original="#322b33" data-darkreader-inline-fill="" style="--darkreader-inline-fill: #232628;" class=""></path></g></g></g></svg>