<svg xmlns="http://www.w3.org/2000/svg" version="1.1" xmlns:xlink="http://www.w3.org/1999/xlink" width="512" height="512" x="0" y="0" viewBox="0 0 512 512" style="enable-background:new 0 0 512 512" xml:space="preserve" class=""><g><path d="M484.197 480.283H27.803c-11.213 0-20.303-9.09-20.303-20.303V240.815h497V459.98c0 11.213-9.09 20.303-20.303 20.303z" style="" fill="#ffe177" data-original="#ffe177"></path><path d="M465.431 240.815V459.98c0 11.213-9.09 20.303-20.303 20.303h39.069c11.213 0 20.303-9.09 20.303-20.303V240.815h-39.069z" style="" fill="#ffd15b" data-original="#ffd15b" class=""></path><path d="M484.197 150.229H27.803c-11.213 0-20.303 9.09-20.303 20.303v70.283h497v-70.283c0-11.213-9.09-20.303-20.303-20.303z" style="" fill="#eef5f6" data-original="#eef5f6" class=""></path><path d="M484.197 150.229h-39.069c11.213 0 20.303 9.09 20.303 20.303v70.283H504.5v-70.283c0-11.213-9.09-20.303-20.303-20.303z" style="" fill="#deecf1" data-original="#deecf1"></path><path d="M34.5 177.227h443v36.59h-443z" style="" fill="#ffd15b" data-original="#ffd15b" class=""></path><path d="M34.5 177.227h443v36.59h-443z" style="" fill="#ffd15b" data-original="#ffd15b" class=""></path><path d="M465.431 177.227H477.5v36.59h-12.069z" style="" fill="#ffc344" data-original="#ffc344"></path><path d="m436.35 177.227-11.29 36.59h-48.23l11.28-36.59zM335.96 177.227l-11.29 36.59h-48.23l11.28-36.59zM235.56 177.227l-11.28 36.59h-48.24l11.29-36.59zM135.17 177.227l-11.28 36.59H75.65l11.29-36.59z" style="" fill="#7ca1b1" data-original="#7ca1b1" class=""></path><circle cx="256" cy="51.028" r="19.311" style="" fill="#a8d3d8" data-original="#a8d3d8"></circle><path d="M417.356 480.283H27.803c-11.213 0-20.303-9.09-20.303-20.303V240.815h497V459.98c0 11.213-9.09 20.303-20.303 20.303h-31.825M68.978 150.229H27.803c-11.213 0-20.303 9.09-20.303 20.303v70.283h497v-70.283c0-11.213-9.09-20.303-20.303-20.303H104.051" style="stroke-width:15;stroke-linecap:round;stroke-linejoin:round;stroke-miterlimit:10;" fill="none" stroke="#000000" stroke-width="15" stroke-linecap="round" stroke-linejoin="round" stroke-miterlimit="10" data-original="#000000" class=""></path><path d="M34.5 177.227h443v36.59h-443z" style="stroke-width:15;stroke-linecap:round;stroke-linejoin:round;stroke-miterlimit:10;" fill="none" stroke="#000000" stroke-width="15" stroke-linecap="round" stroke-linejoin="round" stroke-miterlimit="10" data-original="#000000" class=""></path><path d="m436.35 177.227-11.29 36.59h-48.23l11.28-36.59zM335.96 177.227l-11.29 36.59h-48.23l11.28-36.59zM235.56 177.227l-11.28 36.59h-48.24l11.29-36.59zM135.17 177.227l-11.28 36.59H75.65l11.29-36.59z" style="stroke-width:15;stroke-linecap:round;stroke-linejoin:round;stroke-miterlimit:10;" fill="none" stroke="#000000" stroke-width="15" stroke-linecap="round" stroke-linejoin="round" stroke-miterlimit="10" data-original="#000000" class=""></path><circle cx="256" cy="51.028" r="19.311" style="stroke-width:15;stroke-linecap:round;stroke-linejoin:round;stroke-miterlimit:10;" fill="none" stroke="#000000" stroke-width="15" stroke-linecap="round" stroke-linejoin="round" stroke-miterlimit="10" data-original="#000000" class=""></circle><path d="M256 31.717h0a47.198 47.198 0 0 0-31.259 11.835L104.051 150.23M256 31.717h0a47.198 47.198 0 0 1 31.259 11.835l120.69 106.678M287.101 286.875v47.657M312.737 287.477l-24.111 22.162 25.802 24.893M87.889 286.875l9.285 46.941c.341.961 1.704.952 2.032-.014l14.498-46.84M113.704 286.875l14.461 46.941c.341.961 1.704.952 2.032-.014l9.322-46.84" style="stroke-width:15;stroke-linecap:round;stroke-linejoin:round;stroke-miterlimit:10;" fill="none" stroke="#000000" stroke-width="15" stroke-linecap="round" stroke-linejoin="round" stroke-miterlimit="10" data-original="#000000" class=""></path><circle cx="185.336" cy="311.786" r="23.828" style="stroke-width:15;stroke-linecap:round;stroke-linejoin:round;stroke-miterlimit:10;" fill="none" stroke="#000000" stroke-width="15" stroke-linecap="round" stroke-linejoin="round" stroke-miterlimit="10" data-original="#000000" class=""></circle><path d="m241.364 311.786 20.019 22.746M235.617 286.875v47.657M261.383 299.261c0 6.84-5.998 12.385-13.086 12.385-3.515 0-12.576.055-12.576.055s-.057-8.992-.057-12.44c0-2.832-.032-12.385-.032-12.385h12.664c7.089-.001 13.087 5.544 13.087 12.385zM389.462 335.427v-49.354l33.368 48.319c.619.894 1.281.456 1.281-.631l-.462-47.78M358.936 285.98v49.447M252.64 375.685a23.481 23.481 0 0 0-13.188-4.028c-13.027 0-23.588 10.561-23.588 23.588s10.561 23.588 23.588 23.588c13.027 0 20.362-10.561 20.362-23.588h-14.112M418.377 376.506s-8.465-7.116-18.448-4.109c-9.166 2.761-10.448 13.33-3.817 17.653 0 0 6.507 2.903 13.724 5.565 17.373 6.408 9.889 23.216-4.096 23.216-7.004 0-12.882-3.067-16.44-6.993M475.941 376.506s-8.465-7.116-18.447-4.109c-9.166 2.761-10.448 13.33-3.817 17.653 0 0 6.507 2.903 13.724 5.565 17.373 6.408 9.889 23.216-4.096 23.216-7.004 0-12.882-3.067-16.44-6.993M34.5 371.656v47.176M61.209 384.969c0 7.352-6.221 13.313-13.574 13.313-3.646 0-13.044.059-13.044.059s-.059-9.666-.059-13.372c0-3.044-.033-13.313-.033-13.313h13.136c7.353 0 13.574 5.961 13.574 13.313z" style="stroke-width:15;stroke-linecap:round;stroke-linejoin:round;stroke-miterlimit:10;" fill="none" stroke="#000000" stroke-width="15" stroke-linecap="round" stroke-linejoin="round" stroke-miterlimit="10" data-original="#000000" class=""></path><circle cx="164.317" cy="398.317" r="23.588" style="stroke-width:15;stroke-linecap:round;stroke-linejoin:round;stroke-miterlimit:10;" fill="none" stroke="#000000" stroke-width="15" stroke-linecap="round" stroke-linejoin="round" stroke-miterlimit="10" data-original="#000000" class=""></circle><path d="m95.268 396.316 19.816 22.516M89.579 371.656v47.176M115.084 383.917c0 6.771-5.937 12.26-12.954 12.26-3.48 0-12.449.054-12.449.054s-.056-8.901-.056-12.314c0-2.803-.031-12.26-.031-12.26h12.536c7.017-.001 12.954 5.488 12.954 12.26zM294.284 396.316l19.817 22.516M288.596 371.656v47.176M314.101 383.917c0 6.771-5.937 12.26-12.954 12.26-3.48 0-12.449.054-12.449.054s-.056-8.901-.056-12.314c0-2.803-.031-12.26-.031-12.26h12.536c7.017-.001 12.954 5.488 12.954 12.26zM362.239 372.944h-19.697v46.744h19.697M360.786 396.316h-18.244" style="stroke-width:15;stroke-linecap:round;stroke-linejoin:round;stroke-miterlimit:10;" fill="none" stroke="#000000" stroke-width="15" stroke-linecap="round" stroke-linejoin="round" stroke-miterlimit="10" data-original="#000000" class=""></path></g></svg>